<svg xmlns="http://www.w3.org/2000/svg" xmlns:xlink="http://www.w3.org/1999/xlink" viewBox="0 0 840 431.78"><defs><style>.cls-1,.cls-10,.cls-12,.cls-14{fill:none;}.cls-2{fill:#999fb6;}.cls-3{fill:#f1f3f9;}.cls-4,.cls-7,.cls-8{isolation:isolate;fill:#252b3a;}.cls-4{font-size:12px;}.cls-4,.cls-8{font-family:PingFang-SC-Medium, PingFang SC;font-weight:500;}.cls-5{fill:#fffbf0;}.cls-6{fill:#fa9841;}.cls-7,.cls-8{font-size:14px;}.cls-7{font-family:PingFang-SC-Heavy, PingFang SC;font-weight:800;}.cls-9{fill:url(#未命名的渐变_14);}.cls-10,.cls-12,.cls-14{stroke-linecap:round;stroke-miterlimit:10;stroke-width:1.4px;}.cls-10{stroke:url(#未命名的渐变_14-2);}.cls-11{fill:url(#未命名的渐变_14-3);}.cls-12{stroke:url(#未命名的渐变_14-4);}.cls-13{fill:url(#未命名的渐变_14-5);}.cls-14{stroke:url(#未命名的渐变_14-6);}</style><linearGradient id="未命名的渐变_14" x1="220.65" y1="195.58" x2="233.18" y2="195.58" gradientUnits="userSpaceOnUse"><stop offset="0" stop-color="#f7931e" stop-opacity="0"/><stop offset="1" stop-color="#f7931e"/></linearGradient><linearGradient id="未命名的渐变_14-2" x1="219.95" y1="195.58" x2="234.17" y2="195.58" xlink:href="#未命名的渐变_14"/><linearGradient id="未命名的渐变_14-3" x1="444.65" y1="195.58" x2="457.18" y2="195.58" xlink:href="#未命名的渐变_14"/><linearGradient id="未命名的渐变_14-4" x1="443.95" y1="195.58" x2="458.17" y2="195.58" xlink:href="#未命名的渐变_14"/><linearGradient id="未命名的渐变_14-5" x1="667.65" y1="195.58" x2="680.18" y2="195.58" xlink:href="#未命名的渐变_14"/><linearGradient id="未命名的渐变_14-6" x1="666.95" y1="195.58" x2="681.17" y2="195.58" xlink:href="#未命名的渐变_14"/></defs><g id="图层_4" data-name="图层 4"><rect class="cls-1" width="840" height="431.78"/></g><g id="图层_2" data-name="图层 2"><path class="cls-2" d="M825,12.09a.6.6,0,0,1,.6.6v55a.6.6,0,0,1-.6.6H15a.6.6,0,0,1-.6-.6v-55a.6.6,0,0,1,.6-.6H825m0-1.4H15a2,2,0,0,0-2,2v55a2,2,0,0,0,2,2H825a2,2,0,0,0,2-2v-55a2,2,0,0,0-2-2Z"/><rect class="cls-3" x="163.02" y="25.39" width="122.6" height="29.6" rx="1.3"/><path class="cls-2" d="M284.32,26.09a.6.6,0,0,1,.6.6v27a.6.6,0,0,1-.6.6h-120a.6.6,0,0,1-.6-.6v-27a.6.6,0,0,1,.6-.6h120m0-1.4h-120a2,2,0,0,0-2,2v27a2,2,0,0,0,2,2h120a2,2,0,0,0,2-2v-27a2,2,0,0,0-2-2Z"/><text class="cls-4" transform="translate(200.32 43.75)">数据加密</text><rect class="cls-5" x="294.02" y="25.39" width="122.6" height="29.6" rx="1.3"/><path class="cls-6" d="M415.32,26.09a.6.6,0,0,1,.6.6v27a.6.6,0,0,1-.6.6h-120a.6.6,0,0,1-.6-.6v-27a.6.6,0,0,1,.6-.6h120m0-1.4h-120a2,2,0,0,0-2,2v27a2,2,0,0,0,2,2h120a2,2,0,0,0,2-2v-27a2,2,0,0,0-2-2Z"/><text class="cls-4" transform="translate(331.32 43.75)">合规治理</text><rect class="cls-5" x="425.02" y="25.39" width="122.6" height="29.6" rx="1.3"/><path class="cls-6" d="M546.32,26.09a.6.6,0,0,1,.6.6v27a.6.6,0,0,1-.6.6h-120a.6.6,0,0,1-.6-.6v-27a.6.6,0,0,1,.6-.6h120m0-1.4h-120a2,2,0,0,0-2,2v27a2,2,0,0,0,2,2h120a2,2,0,0,0,2-2v-27a2,2,0,0,0-2-2Z"/><text class="cls-4" transform="translate(438.32 43.75)">敏感数据分级分类</text><rect class="cls-3" x="556.02" y="25.39" width="122.6" height="29.6" rx="1.3"/><path class="cls-2" d="M677.32,26.09a.6.6,0,0,1,.6.6v27a.6.6,0,0,1-.6.6h-120a.6.6,0,0,1-.6-.6v-27a.6.6,0,0,1,.6-.6h120m0-1.4h-120a2,2,0,0,0-2,2v27a2,2,0,0,0,2,2h120a2,2,0,0,0,2-2v-27a2,2,0,0,0-2-2Z"/><text class="cls-4" transform="translate(593.32 43.75)">访问审计</text><rect class="cls-3" x="687.02" y="25.39" width="122.6" height="29.6" rx="1.3"/><path class="cls-2" d="M808.32,26.09a.6.6,0,0,1,.6.6v27a.6.6,0,0,1-.6.6h-120a.6.6,0,0,1-.6-.6v-27a.6.6,0,0,1,.6-.6h120m0-1.4h-120a2,2,0,0,0-2,2v27a2,2,0,0,0,2,2h120a2,2,0,0,0,2-2v-27a2,2,0,0,0-2-2Z"/><text class="cls-4" transform="translate(724.32 43.75)">数据脱敏</text><text class="cls-7" transform="translate(53.74 44.14)">安全合规模块</text><text class="cls-7" transform="translate(53.74 359.89)">平台管理模块</text><path class="cls-2" d="M211.88,87.74a.6.6,0,0,1,.6.6v217a.6.6,0,0,1-.6.6H15a.6.6,0,0,1-.6-.6v-217a.6.6,0,0,1,.6-.6H211.88m0-1.4H15a2,2,0,0,0-2,2v217a2,2,0,0,0,2,2H211.88a2,2,0,0,0,2-2v-217a2,2,0,0,0-2-2Z"/><rect class="cls-3" x="24.1" y="140.91" width="84.39" height="64.6" rx="1.3"/><path class="cls-2" d="M107.19,141.61a.6.6,0,0,1,.6.6v62a.6.6,0,0,1-.6.6H25.4a.6.6,0,0,1-.6-.6v-62a.6.6,0,0,1,.6-.6h81.79m0-1.4H25.4a2,2,0,0,0-2,2v62a2,2,0,0,0,2,2h81.79a2,2,0,0,0,2-2v-62a2,2,0,0,0-2-2Z"/><rect class="cls-3" x="24.1" y="217.91" width="84.39" height="27.6" rx="1.3"/><path class="cls-2" d="M107.19,218.61a.6.6,0,0,1,.6.6v25a.6.6,0,0,1-.6.6H25.4a.6.6,0,0,1-.6-.6v-25a.6.6,0,0,1,.6-.6h81.79m0-1.4H25.4a2,2,0,0,0-2,2v25a2,2,0,0,0,2,2h81.79a2,2,0,0,0,2-2v-25a2,2,0,0,0-2-2Z"/><rect class="cls-3" x="24.1" y="257.91" width="84.39" height="27.6" rx="1.3"/><path class="cls-2" d="M107.19,258.61a.6.6,0,0,1,.6.6v25a.6.6,0,0,1-.6.6H25.4a.6.6,0,0,1-.6-.6v-25a.6.6,0,0,1,.6-.6h81.79m0-1.4H25.4a2,2,0,0,0-2,2v25a2,2,0,0,0,2,2h81.79a2,2,0,0,0,2-2v-25a2,2,0,0,0-2-2Z"/><rect class="cls-3" x="118.39" y="140.91" width="84.39" height="64.6" rx="1.3"/><path class="cls-2" d="M201.49,141.61a.6.6,0,0,1,.6.6v62a.6.6,0,0,1-.6.6h-81.8a.6.6,0,0,1-.6-.6v-62a.6.6,0,0,1,.6-.6h81.8m0-1.4h-81.8a2,2,0,0,0-2,2v62a2,2,0,0,0,2,2h81.8a2,2,0,0,0,2-2v-62a2,2,0,0,0-2-2Z"/><rect class="cls-3" x="118.39" y="217.91" width="84.39" height="27.6" rx="1.3"/><path class="cls-2" d="M201.49,218.61a.6.6,0,0,1,.6.6v25a.6.6,0,0,1-.6.6h-81.8a.6.6,0,0,1-.6-.6v-25a.6.6,0,0,1,.6-.6h81.8m0-1.4h-81.8a2,2,0,0,0-2,2v25a2,2,0,0,0,2,2h81.8a2,2,0,0,0,2-2v-25a2,2,0,0,0-2-2Z"/><rect class="cls-5" x="118.39" y="257.91" width="84.39" height="27.6" rx="1.3"/><path class="cls-6" d="M201.49,258.61a.6.6,0,0,1,.6.6v25a.6.6,0,0,1-.6.6h-81.8a.6.6,0,0,1-.6-.6v-25a.6.6,0,0,1,.6-.6h81.8m0-1.4h-81.8a2,2,0,0,0-2,2v25a2,2,0,0,0,2,2h81.8a2,2,0,0,0,2-2v-25a2,2,0,0,0-2-2Z"/><path class="cls-2" d="M435,87.74a.6.6,0,0,1,.6.6v217a.6.6,0,0,1-.6.6H238.13a.6.6,0,0,1-.6-.6v-217a.6.6,0,0,1,.6-.6H435m0-1.4H238.13a2,2,0,0,0-2,2v217a2,2,0,0,0,2,2H435a2,2,0,0,0,2-2v-217a2,2,0,0,0-2-2Z"/><rect class="cls-3" x="247.23" y="140.91" width="84.39" height="64.6" rx="1.3"/><path class="cls-2" d="M330.32,141.61a.6.6,0,0,1,.6.6v62a.6.6,0,0,1-.6.6H248.53a.6.6,0,0,1-.6-.6v-62a.6.6,0,0,1,.6-.6h81.79m0-1.4H248.53a2,2,0,0,0-2,2v62a2,2,0,0,0,2,2h81.79a2,2,0,0,0,2-2v-62a2,2,0,0,0-2-2Z"/><rect class="cls-5" x="247.23" y="217.91" width="84.39" height="27.6" rx="1.3"/><path class="cls-6" d="M330.32,218.61a.6.6,0,0,1,.6.6v25a.6.6,0,0,1-.6.6H248.53a.6.6,0,0,1-.6-.6v-25a.6.6,0,0,1,.6-.6h81.79m0-1.4H248.53a2,2,0,0,0-2,2v25a2,2,0,0,0,2,2h81.79a2,2,0,0,0,2-2v-25a2,2,0,0,0-2-2Z"/><rect class="cls-3" x="247.23" y="257.91" width="84.39" height="27.6" rx="1.3"/><path class="cls-2" d="M330.32,258.61a.6.6,0,0,1,.6.6v25a.6.6,0,0,1-.6.6H248.53a.6.6,0,0,1-.6-.6v-25a.6.6,0,0,1,.6-.6h81.79m0-1.4H248.53a2,2,0,0,0-2,2v25a2,2,0,0,0,2,2h81.79a2,2,0,0,0,2-2v-25a2,2,0,0,0-2-2Z"/><rect class="cls-3" x="341.52" y="140.91" width="84.39" height="64.6" rx="1.3"/><path class="cls-2" d="M424.62,141.61a.6.6,0,0,1,.6.6v62a.6.6,0,0,1-.6.6h-81.8a.6.6,0,0,1-.6-.6v-62a.6.6,0,0,1,.6-.6h81.8m0-1.4h-81.8a2,2,0,0,0-2,2v62a2,2,0,0,0,2,2h81.8a2,2,0,0,0,2-2v-62a2,2,0,0,0-2-2Z"/><rect class="cls-5" x="341.52" y="217.91" width="84.39" height="27.6" rx="1.3"/><path class="cls-6" d="M424.62,218.61a.6.6,0,0,1,.6.6v25a.6.6,0,0,1-.6.6h-81.8a.6.6,0,0,1-.6-.6v-25a.6.6,0,0,1,.6-.6h81.8m0-1.4h-81.8a2,2,0,0,0-2,2v25a2,2,0,0,0,2,2h81.8a2,2,0,0,0,2-2v-25a2,2,0,0,0-2-2Z"/><rect class="cls-3" x="341.52" y="257.91" width="84.39" height="27.6" rx="1.3"/><path class="cls-2" d="M424.62,258.61a.6.6,0,0,1,.6.6v25a.6.6,0,0,1-.6.6h-81.8a.6.6,0,0,1-.6-.6v-25a.6.6,0,0,1,.6-.6h81.8m0-1.4h-81.8a2,2,0,0,0-2,2v25a2,2,0,0,0,2,2h81.8a2,2,0,0,0,2-2v-25a2,2,0,0,0-2-2Z"/><path class="cls-2" d="M659.45,87.74a.6.6,0,0,1,.6.6v100a.6.6,0,0,1-.6.6H462.57a.6.6,0,0,1-.6-.6v-100a.6.6,0,0,1,.6-.6H659.45m0-1.4H462.57a2,2,0,0,0-2,2v100a2,2,0,0,0,2,2H659.45a2,2,0,0,0,2-2v-100a2,2,0,0,0-2-2Z"/><rect class="cls-5" x="471.67" y="257.91" width="84.39" height="27.6" rx="1.3"/><path class="cls-6" d="M554.76,258.61a.6.6,0,0,1,.6.6v25a.6.6,0,0,1-.6.6H473a.6.6,0,0,1-.6-.6v-25a.6.6,0,0,1,.6-.6h81.8m0-1.4H473a2,2,0,0,0-2,2v25a2,2,0,0,0,2,2h81.8a2,2,0,0,0,2-2v-25a2,2,0,0,0-2-2Z"/><rect class="cls-5" x="565.96" y="257.91" width="84.39" height="27.6" rx="1.3"/><path class="cls-6" d="M649.06,258.61a.6.6,0,0,1,.6.6v25a.6.6,0,0,1-.6.6h-81.8a.6.6,0,0,1-.6-.6v-25a.6.6,0,0,1,.6-.6h81.8m0-1.4h-81.8a2,2,0,0,0-2,2v25a2,2,0,0,0,2,2h81.8a2,2,0,0,0,2-2v-25a2,2,0,0,0-2-2Z"/><rect class="cls-5" x="471.67" y="139.91" width="84.39" height="27.6" rx="1.3"/><path class="cls-6" d="M554.76,140.61a.6.6,0,0,1,.6.6v25a.6.6,0,0,1-.6.6H473a.6.6,0,0,1-.6-.6v-25a.6.6,0,0,1,.6-.6h81.8m0-1.4H473a2,2,0,0,0-2,2v25a2,2,0,0,0,2,2h81.8a2,2,0,0,0,2-2v-25a2,2,0,0,0-2-2Z"/><rect class="cls-3" x="565.96" y="139.91" width="84.39" height="27.6" rx="1.3"/><path class="cls-2" d="M649.06,140.61a.6.6,0,0,1,.6.6v25a.6.6,0,0,1-.6.6h-81.8a.6.6,0,0,1-.6-.6v-25a.6.6,0,0,1,.6-.6h81.8m0-1.4h-81.8a2,2,0,0,0-2,2v25a2,2,0,0,0,2,2h81.8a2,2,0,0,0,2-2v-25a2,2,0,0,0-2-2Z"/><path class="cls-2" d="M659.45,204.74a.6.6,0,0,1,.6.6v100a.6.6,0,0,1-.6.6H462.57a.6.6,0,0,1-.6-.6v-100a.6.6,0,0,1,.6-.6H659.45m0-1.4H462.57a2,2,0,0,0-2,2v100a2,2,0,0,0,2,2H659.45a2,2,0,0,0,2-2v-100a2,2,0,0,0-2-2Z"/><path class="cls-2" d="M825,87.74a.6.6,0,0,1,.6.6v217a.6.6,0,0,1-.6.6H685.7a.6.6,0,0,1-.6-.6v-217a.6.6,0,0,1,.6-.6H825m0-1.4H685.7a2,2,0,0,0-2,2v217a2,2,0,0,0,2,2H825a2,2,0,0,0,2-2v-217a2,2,0,0,0-2-2Z"/><rect class="cls-3" x="699.38" y="139.91" width="111.95" height="27.6" rx="1.3"/><path class="cls-2" d="M810,140.61a.6.6,0,0,1,.6.6v25a.6.6,0,0,1-.6.6H700.68a.6.6,0,0,1-.6-.6v-25a.6.6,0,0,1,.6-.6H810m0-1.4H700.68a2,2,0,0,0-2,2v25a2,2,0,0,0,2,2H810a2,2,0,0,0,2-2v-25a2,2,0,0,0-2-2Z"/><rect class="cls-5" x="699.38" y="179.24" width="111.95" height="27.6" rx="1.3"/><path class="cls-6" d="M810,179.94a.6.6,0,0,1,.6.6v25a.6.6,0,0,1-.6.6H700.68a.6.6,0,0,1-.6-.6v-25a.6.6,0,0,1,.6-.6H810m0-1.4H700.68a2,2,0,0,0-2,2v25a2,2,0,0,0,2,2H810a2,2,0,0,0,2-2v-25a2,2,0,0,0-2-2Z"/><rect class="cls-3" x="699.38" y="218.57" width="111.95" height="27.6" rx="1.3"/><path class="cls-2" d="M810,219.27a.6.6,0,0,1,.6.6v25a.6.6,0,0,1-.6.6H700.68a.6.6,0,0,1-.6-.6v-25a.6.6,0,0,1,.6-.6H810m0-1.4H700.68a2,2,0,0,0-2,2v25a2,2,0,0,0,2,2H810a2,2,0,0,0,2-2v-25a2,2,0,0,0-2-2Z"/><rect class="cls-3" x="699.38" y="257.91" width="111.95" height="27.6" rx="1.3"/><path class="cls-2" d="M810,258.61a.6.6,0,0,1,.6.6v25a.6.6,0,0,1-.6.6H700.68a.6.6,0,0,1-.6-.6v-25a.6.6,0,0,1,.6-.6H810m0-1.4H700.68a2,2,0,0,0-2,2v25a2,2,0,0,0,2,2H810a2,2,0,0,0,2-2v-25a2,2,0,0,0-2-2Z"/><rect class="cls-5" x="430.97" y="402.14" width="18.6" height="18.6" rx="1.3"/><path class="cls-6" d="M448.27,402.84a.6.6,0,0,1,.6.6v16a.6.6,0,0,1-.6.6h-16a.6.6,0,0,1-.6-.6v-16a.6.6,0,0,1,.6-.6h16m0-1.4h-16a2,2,0,0,0-2,2v16a2,2,0,0,0,2,2h16a2,2,0,0,0,2-2v-16a2,2,0,0,0-2-2Z"/><text class="cls-8" transform="translate(459.73 415.6)">伙伴能力</text><rect class="cls-3" x="324.97" y="402.14" width="18.6" height="18.6" rx="1.3"/><path class="cls-2" d="M342.27,402.84a.6.6,0,0,1,.6.6v16a.6.6,0,0,1-.6.6h-16a.6.6,0,0,1-.6-.6v-16a.6.6,0,0,1,.6-.6h16m0-1.4h-16a2,2,0,0,0-2,2v16a2,2,0,0,0,2,2h16a2,2,0,0,0,2-2v-16a2,2,0,0,0-2-2Z"/><text class="cls-8" transform="translate(353.73 415.6)">华为云</text><polyline class="cls-9" points="220.65 183.05 233.18 195.58 220.65 208.11"/><polyline class="cls-10" points="220.65 183.05 233.18 195.58 220.65 208.11"/><rect class="cls-3" x="163.02" y="341.14" width="122.6" height="29.6" rx="1.3"/><path class="cls-2" d="M284.32,341.84a.6.6,0,0,1,.6.6v27a.6.6,0,0,1-.6.6h-120a.6.6,0,0,1-.6-.6v-27a.6.6,0,0,1,.6-.6h120m0-1.4h-120a2,2,0,0,0-2,2v27a2,2,0,0,0,2,2h120a2,2,0,0,0,2-2v-27a2,2,0,0,0-2-2Z"/><text class="cls-8" transform="translate(196.32 360.1)">云堡垒机</text><rect class="cls-3" x="294.02" y="341.14" width="122.6" height="29.6" rx="1.3"/><path class="cls-2" d="M415.32,341.84a.6.6,0,0,1,.6.6v27a.6.6,0,0,1-.6.6h-120a.6.6,0,0,1-.6-.6v-27a.6.6,0,0,1,.6-.6h120m0-1.4h-120a2,2,0,0,0-2,2v27a2,2,0,0,0,2,2h120a2,2,0,0,0,2-2v-27a2,2,0,0,0-2-2Z"/><text class="cls-8" transform="translate(335.03 360.1)">CI/CD</text><rect class="cls-3" x="425.02" y="341.14" width="122.6" height="29.6" rx="1.3"/><path class="cls-2" d="M546.32,341.84a.6.6,0,0,1,.6.6v27a.6.6,0,0,1-.6.6h-120a.6.6,0,0,1-.6-.6v-27a.6.6,0,0,1,.6-.6h120m0-1.4h-120a2,2,0,0,0-2,2v27a2,2,0,0,0,2,2h120a2,2,0,0,0,2-2v-27a2,2,0,0,0-2-2Z"/><text class="cls-8" transform="translate(444.32 360.1)">应用身份管理</text><rect class="cls-3" x="556.02" y="341.14" width="122.6" height="29.6" rx="1.3"/><path class="cls-2" d="M677.32,341.84a.6.6,0,0,1,.6.6v27a.6.6,0,0,1-.6.6h-120a.6.6,0,0,1-.6-.6v-27a.6.6,0,0,1,.6-.6h120m0-1.4h-120a2,2,0,0,0-2,2v27a2,2,0,0,0,2,2h120a2,2,0,0,0,2-2v-27a2,2,0,0,0-2-2Z"/><text class="cls-8" transform="translate(589.32 360.1)">资源监控</text><rect class="cls-3" x="687.02" y="341.14" width="122.6" height="29.6" rx="1.3"/><path class="cls-2" d="M808.32,341.84a.6.6,0,0,1,.6.6v27a.6.6,0,0,1-.6.6h-120a.6.6,0,0,1-.6-.6v-27a.6.6,0,0,1,.6-.6h120m0-1.4h-120a2,2,0,0,0-2,2v27a2,2,0,0,0,2,2h120a2,2,0,0,0,2-2v-27a2,2,0,0,0-2-2Z"/><text class="cls-8" transform="translate(720.32 360.1)">消息通知</text><text class="cls-4" transform="translate(42.29 158.77)">路测数据<tspan x="12.78" y="18">PoP</tspan><tspan x="-6" y="36">接入与传输</tspan></text><text class="cls-4" transform="translate(30.29 235.86)">数据权限控制</text><text class="cls-4" transform="translate(30.29 275.86)">数据分级存储</text><text class="cls-4" transform="translate(136.59 167.77)">数据回放<tspan x="6" y="18">与检索</tspan></text><text class="cls-4" transform="translate(136.59 235.86)">难例搜图</text><text class="cls-4" transform="translate(136.59 275.86)">场景抽取</text><text class="cls-7" transform="translate(61.69 118.98)">路测数据管理模块</text><text class="cls-4" transform="translate(257.24 167.77)">AD标注工具<tspan x="14.18" y="18">预集成</tspan></text><text class="cls-4" transform="translate(250.42 235.86)">图片/视频标注</text><text class="cls-4" transform="translate(250.68 275.86)">A100训练集群</text><text class="cls-4" transform="translate(359.72 167.77)">预标注模<tspan x="6" y="18">型构建</tspan></text><text class="cls-4" transform="translate(359.72 235.86)">点云标注</text><text class="cls-4" transform="translate(347.72 275.86)">点云模型评估</text><text class="cls-7" transform="translate(288.02 118.98)">AI算法训练模块</text><text class="cls-4" transform="translate(489.86 275.86)">版权保护</text><text class="cls-4" transform="translate(578.16 275.86)">场景库接入</text><text class="cls-7" transform="translate(519.01 118.98)">场景仿真模块</text><text class="cls-4" transform="translate(477.86 157.86)">路测数据转换</text><text class="cls-4" transform="translate(572.16 157.86)">批量仿真调度</text><text class="cls-7" transform="translate(512.01 235.98)">场景库交易模块</text><text class="cls-7" transform="translate(699.35 118.98)">量产车车联网模块</text><text class="cls-4" transform="translate(743.09 157.86)">OTA</text><text class="cls-4" transform="translate(708.32 197.2)">Corner Case上传</text><text class="cls-4" transform="translate(722.7 236.53)">IoT设备管理</text><text class="cls-4" transform="translate(732.84 275.86)">SIM互联</text><polyline class="cls-11" points="444.64 183.05 457.18 195.58 444.64 208.11"/><polyline class="cls-12" points="444.64 183.05 457.18 195.58 444.64 208.11"/><polyline class="cls-13" points="667.64 183.05 680.18 195.58 667.64 208.11"/><polyline class="cls-14" points="667.64 183.05 680.18 195.58 667.64 208.11"/><path class="cls-2" d="M825,327.84a.6.6,0,0,1,.6.6v55a.6.6,0,0,1-.6.6H15a.6.6,0,0,1-.6-.6v-55a.6.6,0,0,1,.6-.6H825m0-1.4H15a2,2,0,0,0-2,2v55a2,2,0,0,0,2,2H825a2,2,0,0,0,2-2v-55a2,2,0,0,0-2-2Z"/></g></svg>