<svg xmlns="http://www.w3.org/2000/svg" xmlns:xlink="http://www.w3.org/1999/xlink" contentStyleType="text/css" data-diagram-type="ACTIVITY" height="391px" preserveAspectRatio="none" style="width:313px;height:391px;background:#FFFFFF;" version="1.1" viewBox="0 0 313 391" width="313px" zoomAndPan="magnify"><title>goal callback</title><defs/><g><g class="title" data-source-line="1"><text fill="#000000" font-family="sans-serif" font-size="14" font-weight="bold" lengthAdjust="spacing" textLength="103.1816" x="103.6621" y="32.9951">goal callback</text></g><ellipse cx="156.7529" cy="57.2969" fill="#222222" rx="10" ry="10" style="stroke:#222222;stroke-width:1;"/><rect fill="#F1F1F1" height="33.9688" rx="12.5" ry="12.5" style="stroke:#181818;stroke-width:0.5;" width="266.5215" x="23.4922" y="87.2969"/><text fill="#000000" font-family="sans-serif" font-size="12" lengthAdjust="spacing" textLength="246.5215" x="33.4922" y="108.4355">clear previously memorized check points</text><rect fill="#F1F1F1" height="33.9688" rx="12.5" ry="12.5" style="stroke:#181818;stroke-width:0.5;" width="291.5059" x="11" y="141.2656"/><text fill="#000000" font-family="sans-serif" font-size="12" lengthAdjust="spacing" textLength="271.5059" x="21" y="162.4043">memorize ego and goal pose as check points</text><polygon fill="#F1F1F1" points="92.5603,195.2344,220.9456,195.2344,232.9456,207.2344,220.9456,219.2344,92.5603,219.2344,80.5603,207.2344,92.5603,195.2344" style="stroke:#181818;stroke-width:0.5;"/><text fill="#000000" font-family="sans-serif" font-size="11" lengthAdjust="spacing" textLength="19.0083" x="160.7529" y="229.4448">yes</text><text fill="#000000" font-family="sans-serif" font-size="11" lengthAdjust="spacing" textLength="128.3853" x="92.5603" y="211.0425">routing graph is ready?</text><text fill="#000000" font-family="sans-serif" font-size="11" lengthAdjust="spacing" textLength="13.7017" x="232.9456" y="204.6401">no</text><ellipse cx="268.6472" cy="207.2344" fill="none" rx="11" ry="11" style="stroke:#222222;stroke-width:1;"/><ellipse cx="268.6472" cy="207.2344" fill="#222222" rx="6" ry="6" style="stroke:#222222;stroke-width:1;"/><rect fill="#F1F1F1" height="33.9688" rx="12.5" ry="12.5" style="stroke:#181818;stroke-width:0.5;" width="81.6934" x="115.9063" y="250.9448"/><text fill="#000000" font-family="sans-serif" font-size="12" lengthAdjust="spacing" textLength="61.6934" x="125.9063" y="272.0835">plan route</text><rect fill="#F1F1F1" height="33.9688" rx="12.5" ry="12.5" style="stroke:#181818;stroke-width:0.5;" width="99.1484" x="107.1787" y="304.9136"/><text fill="#000000" font-family="sans-serif" font-size="12" lengthAdjust="spacing" textLength="79.1484" x="117.1787" y="326.0522">publish route</text><ellipse cx="156.7529" cy="369.8823" fill="none" rx="11" ry="11" style="stroke:#222222;stroke-width:1;"/><ellipse cx="156.7529" cy="369.8823" fill="#222222" rx="6" ry="6" style="stroke:#222222;stroke-width:1;"/><line style="stroke:#181818;stroke-width:1;" x1="156.7529" x2="156.7529" y1="67.2969" y2="87.2969"/><polygon fill="#181818" points="152.7529,77.2969,156.7529,87.2969,160.7529,77.2969,156.7529,81.2969" style="stroke:#181818;stroke-width:1;"/><line style="stroke:#181818;stroke-width:1;" x1="156.7529" x2="156.7529" y1="121.2656" y2="141.2656"/><polygon fill="#181818" points="152.7529,131.2656,156.7529,141.2656,160.7529,131.2656,156.7529,135.2656" style="stroke:#181818;stroke-width:1;"/><line style="stroke:#181818;stroke-width:1;" x1="156.7529" x2="156.7529" y1="219.2344" y2="250.9448"/><polygon fill="#181818" points="152.7529,240.9448,156.7529,250.9448,160.7529,240.9448,156.7529,244.9448" style="stroke:#181818;stroke-width:1;"/><line style="stroke:#181818;stroke-width:1;" x1="232.9456" x2="257.6472" y1="207.2344" y2="207.2344"/><polygon fill="#181818" points="247.6472,203.2344,257.6472,207.2344,247.6472,211.2344,251.6472,207.2344" style="stroke:#181818;stroke-width:1;"/><line style="stroke:#181818;stroke-width:1;" x1="156.7529" x2="156.7529" y1="175.2344" y2="195.2344"/><polygon fill="#181818" points="152.7529,185.2344,156.7529,195.2344,160.7529,185.2344,156.7529,189.2344" style="stroke:#181818;stroke-width:1;"/><line style="stroke:#181818;stroke-width:1;" x1="156.7529" x2="156.7529" y1="284.9136" y2="304.9136"/><polygon fill="#181818" points="152.7529,294.9136,156.7529,304.9136,160.7529,294.9136,156.7529,298.9136" style="stroke:#181818;stroke-width:1;"/><line style="stroke:#181818;stroke-width:1;" x1="156.7529" x2="156.7529" y1="338.8823" y2="358.8823"/><polygon fill="#181818" points="152.7529,348.8823,156.7529,358.8823,160.7529,348.8823,156.7529,352.8823" style="stroke:#181818;stroke-width:1;"/><!--SRC=[NOvB3iCW34Jtd6AMoHNQHS_YW0DM78o0L4fFNwAgNNGxy-RJfIiZ6YaygIxaDzSwrUxSpIjJHQdy53kQdjXvjoel3l29_OPYadkx3_JhWAE1SlWq5ciCQl-qh9Yg7LroHAnK4gIXCeNpCQCdpfXERhDZ7V4fspmUMN6SWwnZgoXbN7c-bikngBJq4oxq3G00]--></g></svg>