<svg xmlns="http://www.w3.org/2000/svg" xmlns:xlink="http://www.w3.org/1999/xlink" contentStyleType="text/css" data-diagram-type="ACTIVITY" height="592px" preserveAspectRatio="none" style="width:306px;height:592px;background:#FFFFFF;" version="1.1" viewBox="0 0 306 592" width="306px" zoomAndPan="magnify"><title>plan route</title><defs/><g><g class="title" data-source-line="1"><text fill="#000000" font-family="sans-serif" font-size="14" font-weight="bold" lengthAdjust="spacing" textLength="81.7852" x="111.0459" y="32.9951">plan route</text></g><ellipse cx="140.9385" cy="57.2969" fill="#222222" rx="10" ry="10" style="stroke:#222222;stroke-width:1;"/><polygon fill="#F1F1F1" points="105.2019,87.2969,176.675,87.2969,188.675,99.2969,176.675,111.2969,105.2019,111.2969,93.2019,99.2969,105.2019,87.2969" style="stroke:#181818;stroke-width:0.5;"/><text fill="#000000" font-family="sans-serif" font-size="11" lengthAdjust="spacing" textLength="19.0083" x="144.9385" y="121.5073">yes</text><text fill="#000000" font-family="sans-serif" font-size="11" lengthAdjust="spacing" textLength="71.4731" x="105.2019" y="103.105">goal is valid?</text><text fill="#000000" font-family="sans-serif" font-size="11" lengthAdjust="spacing" textLength="13.7017" x="188.675" y="96.7026">no</text><ellipse cx="224.3767" cy="99.2969" fill="none" rx="11" ry="11" style="stroke:#222222;stroke-width:1;"/><ellipse cx="224.3767" cy="99.2969" fill="#222222" rx="6" ry="6" style="stroke:#222222;stroke-width:1;"/><rect fill="#F1F1F1" height="33.9688" rx="12.5" ry="12.5" style="stroke:#181818;stroke-width:0.5;" width="245.082" x="18.3975" y="143.0073"/><text fill="#000000" font-family="sans-serif" font-size="12" lengthAdjust="spacing" textLength="225.082" x="28.3975" y="164.146">plan path between each check points</text><rect fill="#F1F1F1" height="33.9688" rx="12.5" ry="12.5" style="stroke:#181818;stroke-width:0.5;" width="156.9629" x="62.457" y="196.9761"/><text fill="#000000" font-family="sans-serif" font-size="12" lengthAdjust="spacing" textLength="136.9629" x="72.457" y="218.1147">initialize route lanelets</text><rect fill="#F1F1F1" height="33.9688" rx="12.5" ry="12.5" style="stroke:#181818;stroke-width:0.5;" width="151.0918" x="65.3926" y="250.9448"/><text fill="#000000" font-family="sans-serif" font-size="12" lengthAdjust="spacing" textLength="131.0918" x="75.3926" y="272.0835">get preferred lanelets</text><rect fill="#F1F1F1" height="33.9688" rx="12.5" ry="12.5" style="stroke:#181818;stroke-width:0.5;" width="147.4238" x="67.2266" y="304.9136"/><text fill="#000000" font-family="sans-serif" font-size="12" lengthAdjust="spacing" textLength="127.4238" x="77.2266" y="326.0522">create route sections</text><rect fill="#F1F1F1" height="33.9688" rx="12.5" ry="12.5" style="stroke:#181818;stroke-width:0.5;" width="259.877" x="11" y="407.2847"/><text fill="#000000" font-family="sans-serif" font-size="12" lengthAdjust="spacing" textLength="239.877" x="21" y="428.4233">warn that looped route is not supported</text><polygon fill="#F1F1F1" points="76.3538,358.8823,205.5232,358.8823,217.5232,370.8823,205.5232,382.8823,76.3538,382.8823,64.3538,370.8823,76.3538,358.8823" style="stroke:#181818;stroke-width:0.5;"/><text fill="#000000" font-family="sans-serif" font-size="11" lengthAdjust="spacing" textLength="19.0083" x="144.9385" y="393.0928">yes</text><text fill="#000000" font-family="sans-serif" font-size="11" lengthAdjust="spacing" textLength="129.1694" x="76.3538" y="374.6904">planed route is looped?</text><text fill="#000000" font-family="sans-serif" font-size="11" lengthAdjust="spacing" textLength="13.7017" x="217.5232" y="368.2881">no</text><polygon fill="#F1F1F1" points="140.9385,461.2534,152.9385,473.2534,140.9385,485.2534,128.9385,473.2534,140.9385,461.2534" style="stroke:#181818;stroke-width:0.5;"/><rect fill="#F1F1F1" height="33.9688" rx="12.5" ry="12.5" style="stroke:#181818;stroke-width:0.5;" width="92.9492" x="94.4639" y="505.2534"/><text fill="#000000" font-family="sans-serif" font-size="12" lengthAdjust="spacing" textLength="72.9492" x="104.4639" y="526.3921">return route</text><ellipse cx="140.9385" cy="570.2222" fill="none" rx="11" ry="11" style="stroke:#222222;stroke-width:1;"/><ellipse cx="140.9385" cy="570.2222" fill="#222222" rx="6" ry="6" style="stroke:#222222;stroke-width:1;"/><line style="stroke:#181818;stroke-width:1;" x1="140.9385" x2="140.9385" y1="111.2969" y2="143.0073"/><polygon fill="#181818" points="136.9385,133.0073,140.9385,143.0073,144.9385,133.0073,140.9385,137.0073" style="stroke:#181818;stroke-width:1;"/><line style="stroke:#181818;stroke-width:1;" x1="188.675" x2="213.3767" y1="99.2969" y2="99.2969"/><polygon fill="#181818" points="203.3767,95.2969,213.3767,99.2969,203.3767,103.2969,207.3767,99.2969" style="stroke:#181818;stroke-width:1;"/><line style="stroke:#181818;stroke-width:1;" x1="140.9385" x2="140.9385" y1="67.2969" y2="87.2969"/><polygon fill="#181818" points="136.9385,77.2969,140.9385,87.2969,144.9385,77.2969,140.9385,81.2969" style="stroke:#181818;stroke-width:1;"/><line style="stroke:#181818;stroke-width:1;" x1="140.9385" x2="140.9385" y1="176.9761" y2="196.9761"/><polygon fill="#181818" points="136.9385,186.9761,140.9385,196.9761,144.9385,186.9761,140.9385,190.9761" style="stroke:#181818;stroke-width:1;"/><line style="stroke:#181818;stroke-width:1;" x1="140.9385" x2="140.9385" y1="230.9448" y2="250.9448"/><polygon fill="#181818" points="136.9385,240.9448,140.9385,250.9448,144.9385,240.9448,140.9385,244.9448" style="stroke:#181818;stroke-width:1;"/><line style="stroke:#181818;stroke-width:1;" x1="140.9385" x2="140.9385" y1="284.9136" y2="304.9136"/><polygon fill="#181818" points="136.9385,294.9136,140.9385,304.9136,144.9385,294.9136,140.9385,298.9136" style="stroke:#181818;stroke-width:1;"/><line style="stroke:#181818;stroke-width:1;" x1="140.9385" x2="140.9385" y1="382.8823" y2="407.2847"/><polygon fill="#181818" points="136.9385,397.2847,140.9385,407.2847,144.9385,397.2847,140.9385,401.2847" style="stroke:#181818;stroke-width:1;"/><line style="stroke:#181818;stroke-width:1;" x1="217.5232" x2="280.877" y1="370.8823" y2="370.8823"/><polygon fill="#181818" points="276.877,414.269,280.877,424.269,284.877,414.269,280.877,418.269" style="stroke:#181818;stroke-width:1;"/><line style="stroke:#181818;stroke-width:1;" x1="280.877" x2="280.877" y1="370.8823" y2="473.2534"/><line style="stroke:#181818;stroke-width:1;" x1="280.877" x2="152.9385" y1="473.2534" y2="473.2534"/><polygon fill="#181818" points="162.9385,469.2534,152.9385,473.2534,162.9385,477.2534,158.9385,473.2534" style="stroke:#181818;stroke-width:1;"/><line style="stroke:#181818;stroke-width:1;" x1="140.9385" x2="140.9385" y1="441.2534" y2="461.2534"/><polygon fill="#181818" points="136.9385,451.2534,140.9385,461.2534,144.9385,451.2534,140.9385,455.2534" style="stroke:#181818;stroke-width:1;"/><line style="stroke:#181818;stroke-width:1;" x1="140.9385" x2="140.9385" y1="338.8823" y2="358.8823"/><polygon fill="#181818" points="136.9385,348.8823,140.9385,358.8823,144.9385,348.8823,140.9385,352.8823" style="stroke:#181818;stroke-width:1;"/><line style="stroke:#181818;stroke-width:1;" x1="140.9385" x2="140.9385" y1="485.2534" y2="505.2534"/><polygon fill="#181818" points="136.9385,495.2534,140.9385,505.2534,144.9385,495.2534,140.9385,499.2534" style="stroke:#181818;stroke-width:1;"/><line style="stroke:#181818;stroke-width:1;" x1="140.9385" x2="140.9385" y1="539.2222" y2="559.2222"/><polygon fill="#181818" points="136.9385,549.2222,140.9385,559.2222,144.9385,549.2222,140.9385,553.2222" style="stroke:#181818;stroke-width:1;"/><!--SRC=[LP1DSi8m38NtFeMMoHLWmLbSvuLey4WUMIdJdXwPG9cktzydENi5jPg5J7T7wfxDK-ALfglcIjpfErTUBZFv1g7f1trEg1qqYSxXrvOW2wyfdPuzBVj6N_0xmevSDYeRoesQidW_Xus5dQFq5ySeHGmLXtY5KpEiCCFoJoc6xEz8Ht5M6S9W7SjXFxHWhgeD7-X1UZ0_yK_tR19IzfVn4nHrwdjhQexb_7UPmNTx_IWcnzKF]--></g></svg>